<svg width="12" height="14" viewBox="0 0 12 14" fill="none" xmlns="http://www.w3.org/2000/svg">
<path d="M6.00002 0.677612C4.6673 0.677546 3.38842 1.20348 2.44132 2.1411C1.49423 3.07873 0.955466 4.35226 0.942139 5.68491C0.942139 9.14956 5.39939 13.0062 5.58906 13.1706C5.70358 13.2685 5.84932 13.3223 6.00002 13.3223C6.15071 13.3223 6.29645 13.2685 6.41097 13.1706C6.63225 13.0062 11.0579 9.14956 11.0579 5.68491C11.0446 4.35226 10.5058 3.07873 9.55871 2.1411C8.61162 1.20348 7.33273 0.677546 6.00002 0.677612ZM6.00002 7.63219C5.56236 7.63219 5.13453 7.50241 4.77064 7.25926C4.40674 7.01612 4.12312 6.67052 3.95564 6.26618C3.78815 5.86184 3.74433 5.41692 3.82971 4.98767C3.9151 4.55843 4.12585 4.16414 4.43531 3.85467C4.74478 3.5452 5.13907 3.33445 5.56832 3.24907C5.99756 3.16369 6.44248 3.20751 6.84683 3.37499C7.25117 3.54247 7.59676 3.8261 7.83991 4.18999C8.08306 4.55389 8.21284 4.98172 8.21284 5.41937C8.21284 6.00625 7.9797 6.56909 7.56472 6.98407C7.14973 7.39906 6.58689 7.63219 6.00002 7.63219Z" fill="white"/>
</svg>
