<svg width="24" height="25" viewBox="0 0 24 25" fill="none" xmlns="http://www.w3.org/2000/svg">
<path fill-rule="evenodd" clip-rule="evenodd" d="M13.8724 2.65224C13.4826 2.5 12.9884 2.5 12 2.5C11.0116 2.5 10.5174 2.5 10.1276 2.65224C9.60778 2.85523 9.19482 3.24458 8.97953 3.73463C8.88124 3.95834 8.84278 4.2185 8.82773 4.59799C8.80561 5.15568 8.50227 5.67189 7.98964 5.95093C7.47702 6.22996 6.85119 6.21954 6.32788 5.95876C5.97176 5.7813 5.71356 5.68262 5.45893 5.65102C4.90114 5.58178 4.33703 5.72429 3.89069 6.0472C3.55593 6.28938 3.30883 6.6929 2.81463 7.49993C2.32043 8.30697 2.07333 8.71048 2.01826 9.10491C1.94482 9.6308 2.09598 10.1627 2.43847 10.5835C2.5948 10.7756 2.81449 10.937 3.15547 11.139C3.65674 11.436 3.97928 11.9419 3.97925 12.5C3.97922 13.0581 3.65669 13.5639 3.15547 13.8608C2.81444 14.0629 2.5947 14.2244 2.43837 14.4165C2.09587 14.8373 1.94472 15.3691 2.01816 15.895C2.07323 16.2894 2.32033 16.693 2.81452 17.5C3.30872 18.307 3.55583 18.7106 3.89059 18.9527C4.33692 19.2756 4.90104 19.4181 5.45883 19.3489C5.71345 19.3173 5.97163 19.2186 6.32771 19.0412C6.85107 18.7804 7.47694 18.77 7.98959 19.049C8.50224 19.3281 8.8056 19.8443 8.82773 20.4021C8.84278 20.7815 8.88124 21.0417 8.97953 21.2654C9.19482 21.7554 9.60778 22.1448 10.1276 22.3478C10.5174 22.5 11.0116 22.5 12 22.5C12.9884 22.5 13.4826 22.5 13.8724 22.3478C14.3922 22.1448 14.8051 21.7554 15.0204 21.2654C15.1187 21.0417 15.1572 20.7815 15.1723 20.402C15.1944 19.8443 15.4977 19.3281 16.0103 19.049C16.5229 18.7699 17.1488 18.7804 17.6722 19.0412C18.0283 19.2186 18.2864 19.3172 18.541 19.3488C19.0988 19.4181 19.6629 19.2756 20.1092 18.9527C20.4441 18.7105 20.6911 18.307 21.1853 17.4999C21.6796 16.6929 21.9266 16.2894 21.9818 15.895C22.0551 15.3691 21.904 14.8372 21.5616 14.4164C21.4051 14.2243 21.1855 14.0628 20.8444 13.8608C20.3432 13.5639 20.0207 13.058 20.0207 12.4999C20.0207 11.9418 20.3432 11.4361 20.8444 11.1392C21.1856 10.9371 21.4052 10.7757 21.5617 10.5835C21.9041 10.1627 22.0552 9.63087 21.9819 9.10497C21.9267 8.71055 21.6797 8.30703 21.1855 7.5C20.6912 6.69297 20.4442 6.28945 20.1093 6.04727C19.663 5.72436 19.0989 5.58185 18.5411 5.65109C18.2865 5.68269 18.0283 5.78136 17.6723 5.9588C17.1489 6.21959 16.523 6.23002 16.0104 5.95096C15.4978 5.67191 15.1944 5.15566 15.1722 4.59794C15.1571 4.21848 15.1187 3.95833 15.0204 3.73463C14.8051 3.24458 14.3922 2.85523 13.8724 2.65224ZM12 15.5C13.7574 15.5 15.1819 14.1569 15.1819 12.5C15.1819 10.8431 13.7574 9.5 12 9.5C10.2426 9.5 8.81805 10.8431 8.81805 12.5C8.81805 14.1569 10.2426 15.5 12 15.5Z" fill="white"/>
</svg>
