<svg width="20" height="20" viewBox="0 0 20 20" fill="none" xmlns="http://www.w3.org/2000/svg">
<path d="M1.11157 6.72865C0.768624 7.03559 0.73944 7.56241 1.04638 7.90536C1.35332 8.2483 1.88015 8.27748 2.22308 7.97054L1.11157 6.72865ZM17.7782 7.97054C18.1212 8.27748 18.648 8.2483 18.9549 7.90536C19.2619 7.56241 19.2327 7.03559 18.8897 6.72865L17.7782 7.97054ZM10.0007 15.8334C9.54041 15.8334 9.16732 16.2065 9.16732 16.6667C9.16732 17.127 9.54041 17.5 10.0007 17.5V15.8334ZM10.009 17.5C10.4692 17.5 10.8423 17.127 10.8423 16.6667C10.8423 16.2065 10.4692 15.8334 10.009 15.8334V17.5ZM12.2427 14.2C12.5832 14.5097 13.1102 14.4848 13.4199 14.1444C13.7297 13.8039 13.7047 13.2769 13.3642 12.9671L12.2427 14.2ZM15.0456 11.117C15.386 11.4266 15.9131 11.4017 16.2227 11.0612C16.5324 10.7208 16.5075 10.1937 16.1671 9.88404L15.0456 11.117ZM6.63709 12.9671C6.29663 13.2769 6.27169 13.8039 6.58138 14.1444C6.89107 14.4848 7.41812 14.5097 7.75857 14.2L6.63709 12.9671ZM3.83427 9.88404C3.49382 10.1937 3.46887 10.7208 3.77856 11.0612C4.08825 11.4017 4.61529 11.4266 4.95575 11.117L3.83427 9.88404ZM2.22308 7.97054C4.28769 6.12267 7.01208 5.00004 10.0007 5.00004V3.33337C6.58628 3.33337 3.46992 4.61786 1.11157 6.72865L2.22308 7.97054ZM10.0007 5.00004C12.9892 5.00004 15.7137 6.12267 17.7782 7.97054L18.8897 6.72865C16.5314 4.61786 13.415 3.33337 10.0007 3.33337V5.00004ZM10.0007 17.5H10.009V15.8334H10.0007V17.5ZM10.0007 13.3334C10.8646 13.3334 11.6501 13.661 12.2427 14.2L13.3642 12.9671C12.4767 12.1599 11.2953 11.6667 10.0007 11.6667V13.3334ZM10.0007 9.16671C11.9439 9.16671 13.7128 9.90462 15.0456 11.117L16.1671 9.88404C14.5395 8.40354 12.3746 7.50004 10.0007 7.50004V9.16671ZM7.75857 14.2C8.35124 13.661 9.13674 13.3334 10.0007 13.3334V11.6667C8.70599 11.6667 7.52459 12.1599 6.63709 12.9671L7.75857 14.2ZM4.95575 11.117C6.28852 9.90462 8.05745 9.16671 10.0007 9.16671V7.50004C7.62672 7.50004 5.46186 8.40354 3.83427 9.88404L4.95575 11.117Z" fill="white"/>
</svg>
