<svg width="20" height="20" viewBox="0 0 20 20" fill="none" xmlns="http://www.w3.org/2000/svg">
<path d="M1.11083 6.72865C0.767892 7.03559 0.738708 7.56241 1.04565 7.90536C1.35258 8.2483 1.87942 8.27748 2.22235 7.97054L1.11083 6.72865ZM17.7775 7.97054C18.1204 8.27748 18.6473 8.2483 18.9542 7.90536C19.2612 7.56241 19.2319 7.03559 18.889 6.72865L17.7775 7.97054ZM9.99993 15.8334C9.53968 15.8334 9.16659 16.2065 9.16659 16.6667C9.16659 17.127 9.53968 17.5 9.99993 17.5V15.8334ZM10.0083 17.5C10.4685 17.5 10.8416 17.127 10.8416 16.6667C10.8416 16.2065 10.4685 15.8334 10.0083 15.8334V17.5ZM12.242 14.2C12.5824 14.5097 13.1095 14.4848 13.4192 14.1444C13.7289 13.8039 13.7039 13.2769 13.3635 12.9671L12.242 14.2ZM15.0448 11.117C15.3853 11.4266 15.9123 11.4017 16.222 11.0612C16.5317 10.7208 16.5068 10.1937 16.1663 9.88404L15.0448 11.117ZM6.63636 12.9671C6.2959 13.2769 6.27096 13.8039 6.58065 14.1444C6.89034 14.4848 7.41738 14.5097 7.75784 14.2L6.63636 12.9671ZM3.83354 9.88404C3.49308 10.1937 3.46813 10.7208 3.77783 11.0612C4.08752 11.4017 4.61456 11.4266 4.95502 11.117L3.83354 9.88404ZM2.22235 7.97054C4.28696 6.12267 7.01135 5.00004 9.99993 5.00004V3.33337C6.58555 3.33337 3.46919 4.61786 1.11083 6.72865L2.22235 7.97054ZM9.99993 5.00004C12.9885 5.00004 15.7129 6.12267 17.7775 7.97054L18.889 6.72865C16.5307 4.61786 13.4143 3.33337 9.99993 3.33337V5.00004ZM9.99993 17.5H10.0083V15.8334H9.99993V17.5ZM9.99993 13.3334C10.8638 13.3334 11.6493 13.661 12.242 14.2L13.3635 12.9671C12.476 12.1599 11.2946 11.6667 9.99993 11.6667V13.3334ZM9.99993 9.16671C11.9432 9.16671 13.7121 9.90462 15.0448 11.117L16.1663 9.88404C14.5388 8.40354 12.3738 7.50004 9.99993 7.50004V9.16671ZM7.75784 14.2C8.35051 13.661 9.13601 13.3334 9.99993 13.3334V11.6667C8.70526 11.6667 7.52386 12.1599 6.63636 12.9671L7.75784 14.2ZM4.95502 11.117C6.28779 9.90462 8.05672 9.16671 9.99993 9.16671V7.50004C7.62598 7.50004 5.46113 8.40354 3.83354 9.88404L4.95502 11.117Z" fill="white"/>
</svg>
