<svg width="20" height="20" viewBox="0 0 20 20" fill="none" xmlns="http://www.w3.org/2000/svg">
<path d="M1.27758 6.39527C0.93464 6.70222 0.905456 7.22904 1.2124 7.57198C1.51933 7.91492 2.04616 7.94411 2.3891 7.63717L1.27758 6.39527ZM17.9443 7.63717C18.2872 7.94411 18.814 7.91492 19.1209 7.57198C19.4279 7.22904 19.3987 6.70222 19.0558 6.39527L17.9443 7.63717ZM10.1667 15.5C9.70642 15.5 9.33334 15.8731 9.33334 16.3333C9.33334 16.7936 9.70642 17.1667 10.1667 17.1667V15.5ZM10.175 17.1667C10.6353 17.1667 11.0083 16.7936 11.0083 16.3333C11.0083 15.8731 10.6353 15.5 10.175 15.5V17.1667ZM12.4088 13.8667C12.7492 14.1763 13.2763 14.1514 13.5859 13.811C13.8957 13.4705 13.8707 12.9435 13.5303 12.6337L12.4088 13.8667ZM15.2116 10.7836C15.552 11.0932 16.0791 11.0683 16.3888 10.7278C16.6984 10.3874 16.6735 9.86033 16.3331 9.55067L15.2116 10.7836ZM6.80311 12.6337C6.46265 12.9435 6.43771 13.4705 6.7474 13.811C7.05709 14.1514 7.58413 14.1763 7.92459 13.8667L6.80311 12.6337ZM4.00029 9.55067C3.65983 9.86033 3.63488 10.3874 3.94457 10.7278C4.25427 11.0683 4.78131 11.0932 5.12176 10.7836L4.00029 9.55067ZM2.3891 7.63717C4.45371 5.7893 7.1781 4.66667 10.1667 4.66667V3C6.7523 3 3.63594 4.28448 1.27758 6.39527L2.3891 7.63717ZM10.1667 4.66667C13.1553 4.66667 15.8797 5.7893 17.9443 7.63717L19.0558 6.39527C16.6974 4.28448 13.581 3 10.1667 3V4.66667ZM10.1667 17.1667H10.175V15.5H10.1667V17.1667ZM10.1667 13C11.0306 13 11.8161 13.3276 12.4088 13.8667L13.5303 12.6337C12.6428 11.8265 11.4613 11.3333 10.1667 11.3333V13ZM10.1667 8.83333C12.1099 8.83333 13.8788 9.57125 15.2116 10.7836L16.3331 9.55067C14.7055 8.07017 12.5406 7.16667 10.1667 7.16667V8.83333ZM7.92459 13.8667C8.51726 13.3276 9.30276 13 10.1667 13V11.3333C8.87201 11.3333 7.69061 11.8265 6.80311 12.6337L7.92459 13.8667ZM5.12176 10.7836C6.45454 9.57125 8.22347 8.83333 10.1667 8.83333V7.16667C7.79273 7.16667 5.62787 8.07017 4.00029 9.55067L5.12176 10.7836Z" fill="white"/>
</svg>
